<svg width="32" height="32" fill="none" xmlns="http://www.w3.org/2000/svg"><path d="M9.36535 3.07998C10.3671 3.41802 11.3198 3.88697 12.1987 4.47465C13.4407 4.15674 14.718 3.99726 16 3.99998C17.324 3.99998 18.6014 4.16531 19.7987 4.47331C20.6772 3.88621 21.6295 3.41771 22.6307 3.07998C23.56 2.76398 24.884 2.25198 25.6707 3.12265C26.204 3.71465 26.3374 4.70665 26.432 5.46398C26.5387 6.30931 26.564 7.41065 26.284 8.50398C27.3547 9.88665 28 11.536 28 13.3333C28 16.056 26.5254 18.42 24.3427 20.0573C23.2918 20.8346 22.1269 21.4444 20.8894 21.8653C21.1747 22.5186 21.3334 23.2413 21.3334 24V28C21.3334 28.3536 21.1929 28.6927 20.9428 28.9428C20.6928 29.1928 20.3536 29.3333 20 29.3333H12C11.6464 29.3333 11.3073 29.1928 11.0572 28.9428C10.8072 28.6927 10.6667 28.3536 10.6667 28V26.6786C9.39335 26.8346 8.32535 26.696 7.41735 26.3106C6.46802 25.908 5.80669 25.284 5.30935 24.6866C4.83735 24.1213 4.32269 22.8466 3.57869 22.5986C3.41252 22.5433 3.25888 22.4558 3.12654 22.3411C2.99419 22.2264 2.88574 22.0867 2.80737 21.9301C2.64909 21.6138 2.62294 21.2476 2.73469 20.912C2.84643 20.5764 3.08691 20.2989 3.40322 20.1407C3.71953 19.9824 4.08577 19.9562 4.42135 20.068C5.30935 20.364 5.88802 21.004 6.28402 21.5186C6.92402 22.3453 7.44402 23.4253 8.45735 23.856C8.87469 24.0333 9.48669 24.1493 10.444 24.0186L10.6667 23.9733C10.6698 23.2478 10.8208 22.5305 11.1107 21.8653C9.87319 21.4444 8.70828 20.8346 7.65735 20.0573C5.47469 18.42 4.00002 16.0573 4.00002 13.3333C4.00002 11.5386 4.64402 9.89065 5.71202 8.50931C5.43202 7.41598 5.45602 6.31198 5.56269 5.46531L5.56935 5.41465C5.66669 4.63865 5.78002 3.72531 6.32402 3.12265C7.11069 2.25198 8.43602 2.76531 9.36402 3.08131L9.36535 3.07998Z" fill="#0A0A14"/></svg>