<svg width="96" height="96" viewBox="0 0 96 96" fill="none" xmlns="http://www.w3.org/2000/svg">
<g filter="url(#filter0_d_10_119)">
<path d="M24 48C24 34.7452 34.7452 24 48 24C61.2548 24 72 34.7452 72 48C72 61.2548 61.2548 72 48 72C34.7452 72 24 61.2548 24 48Z" fill="url(#paint0_linear_10_119)" shape-rendering="crispEdges"/>
<g clip-path="url(#clip0_10_119)">
<path d="M40.6272 33.7963C38.4058 34.9491 36.4859 36.6069 35.0216 38.6366C33.5574 40.6662 32.5897 43.0111 32.1963 45.4827H33.1243C39.1083 45.344 43.7995 44.8256 47.6309 43.6523C45.9669 40.7019 43.936 37.8069 41.4997 34.8629L41.4976 34.8608L40.6272 33.7963ZM32.0043 47.616L32 48C32 52.3029 33.6981 56.2091 36.4608 59.0848L36.8043 58.3936L36.8683 58.2827C40.4053 52.9024 44.4075 49.7024 48.8832 48.2667C49.1861 48.1685 49.4919 48.0789 49.8005 47.9979C49.442 47.1764 49.0599 46.3654 48.6549 45.5659C44.4629 46.9163 39.424 47.4709 33.1605 47.6139H32.0064" fill="#0A0A14"/>
<path d="M38.1013 60.5718C40.9203 62.7973 44.4084 64.0054 48 64C49.9051 64 51.7333 63.6672 53.4251 63.0571V61.5211C52.9045 57.3931 51.9893 53.6064 50.6133 49.9926C50.2507 50.0822 49.8908 50.1838 49.5339 50.2976C45.6469 51.5456 42.0139 54.3574 38.6859 59.4027L38.1013 60.5718ZM55.5584 62.1056C57.6208 60.9993 59.4157 59.4545 60.817 57.58C62.2183 55.7055 63.1919 53.5467 63.6693 51.2555L62.464 50.7115C58.9952 49.6918 55.7632 49.2736 52.7509 49.6128C54.112 53.2822 55.0272 57.135 55.5499 61.3206C55.5555 61.3632 55.5584 61.4073 55.5584 61.4528V62.1056ZM63.9659 49.0496C63.9886 48.7026 64 48.3527 64 48C64.0059 44.1632 62.6272 40.453 60.1173 37.551L59.4816 38.2528C56.9856 41.2886 54.1355 43.3942 50.6709 44.8278C51.1232 45.7309 51.5449 46.6439 51.936 47.567C55.5029 47.055 59.2533 47.5371 63.1381 48.687L63.2768 48.7382L63.9659 49.0496ZM58.6155 36.0278C55.6915 33.4274 51.913 31.9938 48 32C46.1269 32 44.3307 32.32 42.6603 32.9131L43.1467 33.5062C45.7493 36.6486 47.9083 39.7547 49.6704 42.9312C52.9621 41.6022 55.5712 39.6587 57.8496 36.879L57.8816 36.8406L58.6155 36.0278Z" fill="#0A0A14"/>
</g>
</g>
<defs>
<filter id="filter0_d_10_119" x="0" y="0" width="96" height="96" filterUnits="userSpaceOnUse" color-interpolation-filters="sRGB">
<feFlood flood-opacity="0" result="BackgroundImageFix"/>
<feColorMatrix in="SourceAlpha" type="matrix" values="0 0 0 0 0 0 0 0 0 0 0 0 0 0 0 0 0 0 127 0" result="hardAlpha"/>
<feOffset/>
<feGaussianBlur stdDeviation="12"/>
<feComposite in2="hardAlpha" operator="out"/>
<feColorMatrix type="matrix" values="0 0 0 0 0.956863 0 0 0 0 0.0196078 0 0 0 0 1 0 0 0 0.13 0"/>
<feBlend mode="normal" in2="BackgroundImageFix" result="effect1_dropShadow_10_119"/>
<feBlend mode="normal" in="SourceGraphic" in2="effect1_dropShadow_10_119" result="shape"/>
</filter>
<linearGradient id="paint0_linear_10_119" x1="24" y1="24" x2="71.9999" y2="72.0001" gradientUnits="userSpaceOnUse">
<stop stop-color="#F405FF"/>
<stop offset="1" stop-color="#893CFF"/>
</linearGradient>
<clipPath id="clip0_10_119">
<rect width="32" height="32" fill="white" transform="translate(32 32)"/>
</clipPath>
</defs>
</svg>
