<svg width="96" height="96" viewBox="0 0 96 96" fill="none" xmlns="http://www.w3.org/2000/svg">
<g filter="url(#filter0_d_10_123)">
<path d="M24 48C24 34.7452 34.7452 24 48 24C61.2548 24 72 34.7452 72 48C72 61.2548 61.2548 72 48 72C34.7452 72 24 61.2548 24 48Z" fill="url(#paint0_linear_10_123)" shape-rendering="crispEdges"/>
<path d="M41.3654 35.08C42.3671 35.418 43.3198 35.887 44.1987 36.4746C45.4407 36.1567 46.718 35.9973 48 36C49.324 36 50.6014 36.1653 51.7987 36.4733C52.6772 35.8862 53.6295 35.4177 54.6307 35.08C55.56 34.764 56.884 34.252 57.6707 35.1226C58.204 35.7146 58.3374 36.7066 58.432 37.464C58.5387 38.3093 58.564 39.4106 58.284 40.504C59.3547 41.8866 60 43.536 60 45.3333C60 48.056 58.5254 50.42 56.3427 52.0573C55.2918 52.8346 54.1269 53.4444 52.8894 53.8653C53.1747 54.5186 53.3334 55.2413 53.3334 56V60C53.3334 60.3536 53.1929 60.6927 52.9428 60.9428C52.6928 61.1928 52.3536 61.3333 52 61.3333H44C43.6464 61.3333 43.3073 61.1928 43.0572 60.9428C42.8072 60.6927 42.6667 60.3536 42.6667 60V58.6786C41.3934 58.8346 40.3254 58.696 39.4174 58.3106C38.468 57.908 37.8067 57.284 37.3094 56.6866C36.8374 56.1213 36.3227 54.8466 35.5787 54.5986C35.4125 54.5433 35.2589 54.4558 35.1265 54.3411C34.9942 54.2264 34.8857 54.0867 34.8074 53.9301C34.6491 53.6138 34.6229 53.2476 34.7347 52.912C34.8464 52.5764 35.0869 52.2989 35.4032 52.1407C35.7195 51.9824 36.0858 51.9562 36.4214 52.068C37.3094 52.364 37.888 53.004 38.284 53.5186C38.924 54.3453 39.444 55.4253 40.4574 55.856C40.8747 56.0333 41.4867 56.1493 42.444 56.0186L42.6667 55.9733C42.6698 55.2478 42.8208 54.5305 43.1107 53.8653C41.8732 53.4444 40.7083 52.8346 39.6574 52.0573C37.4747 50.42 36 48.0573 36 45.3333C36 43.5386 36.644 41.8906 37.712 40.5093C37.432 39.416 37.456 38.312 37.5627 37.4653L37.5694 37.4146C37.6667 36.6386 37.78 35.7253 38.324 35.1226C39.1107 34.252 40.436 34.7653 41.364 35.0813L41.3654 35.08Z" fill="#0A0A14"/>
</g>
<defs>
<filter id="filter0_d_10_123" x="0" y="0" width="96" height="96" filterUnits="userSpaceOnUse" color-interpolation-filters="sRGB">
<feFlood flood-opacity="0" result="BackgroundImageFix"/>
<feColorMatrix in="SourceAlpha" type="matrix" values="0 0 0 0 0 0 0 0 0 0 0 0 0 0 0 0 0 0 127 0" result="hardAlpha"/>
<feOffset/>
<feGaussianBlur stdDeviation="12"/>
<feComposite in2="hardAlpha" operator="out"/>
<feColorMatrix type="matrix" values="0 0 0 0 0.956863 0 0 0 0 0.0196078 0 0 0 0 1 0 0 0 0.13 0"/>
<feBlend mode="normal" in2="BackgroundImageFix" result="effect1_dropShadow_10_123"/>
<feBlend mode="normal" in="SourceGraphic" in2="effect1_dropShadow_10_123" result="shape"/>
</filter>
<linearGradient id="paint0_linear_10_123" x1="24" y1="24" x2="71.9999" y2="72.0001" gradientUnits="userSpaceOnUse">
<stop stop-color="#F405FF"/>
<stop offset="1" stop-color="#893CFF"/>
</linearGradient>
</defs>
</svg>
