<svg width="96" height="96" viewBox="0 0 96 96" fill="none" xmlns="http://www.w3.org/2000/svg">
<g filter="url(#filter0_d_10_109)">
<path d="M24 48C24 34.7452 34.7452 24 48 24C61.2548 24 72 34.7452 72 48C72 61.2548 61.2548 72 48 72C34.7452 72 24 61.2548 24 48Z" fill="url(#paint0_linear_10_109)" shape-rendering="crispEdges"/>
<path d="M52.2 43.2C51.1781 43.1965 50.1655 43.3945 49.2202 43.7828C48.2749 44.171 47.4154 44.7418 46.6909 45.4626C45.9664 46.1834 45.3912 47.0399 44.9981 47.9832C44.605 48.9265 44.4018 49.9381 44.4 50.96V58.8C44.4 59.1183 44.5265 59.4235 44.7515 59.6485C44.9765 59.8736 45.2818 60 45.6 60H48.4C48.7183 60 49.0235 59.8736 49.2486 59.6485C49.4736 59.4235 49.6 59.1183 49.6 58.8V50.96C49.5998 50.5965 49.6761 50.2371 49.8241 49.9051C49.972 49.5731 50.1883 49.2761 50.4588 49.0333C50.7292 48.7905 51.0479 48.6074 51.3938 48.496C51.7398 48.3846 52.1054 48.3473 52.4667 48.3867C53.1147 48.4683 53.7102 48.7849 54.1403 49.2764C54.5704 49.7679 54.8051 50.4002 54.8 51.0533V58.8C54.8 59.1183 54.9265 59.4235 55.1515 59.6485C55.3765 59.8736 55.6818 60 56 60H58.8C59.1183 60 59.4235 59.8736 59.6486 59.6485C59.8736 59.4235 60 59.1183 60 58.8V50.96C59.9983 49.9381 59.795 48.9265 59.4019 47.9832C59.0088 47.0399 58.4336 46.1834 57.7091 45.4626C56.9847 44.7418 56.1252 44.171 55.1799 43.7828C54.2345 43.3945 53.222 43.1965 52.2 43.2Z" fill="#0A0A14"/>
<path d="M40.8 44.4H37.2C36.5373 44.4 36 44.9373 36 45.6V58.8C36 59.4628 36.5373 60 37.2 60H40.8C41.4627 60 42 59.4628 42 58.8V45.6C42 44.9373 41.4627 44.4 40.8 44.4Z" fill="#0A0A14"/>
<path d="M39 42C40.6569 42 42 40.6569 42 39C42 37.3431 40.6569 36 39 36C37.3431 36 36 37.3431 36 39C36 40.6569 37.3431 42 39 42Z" fill="#0A0A14"/>
</g>
<defs>
<filter id="filter0_d_10_109" x="0" y="0" width="96" height="96" filterUnits="userSpaceOnUse" color-interpolation-filters="sRGB">
<feFlood flood-opacity="0" result="BackgroundImageFix"/>
<feColorMatrix in="SourceAlpha" type="matrix" values="0 0 0 0 0 0 0 0 0 0 0 0 0 0 0 0 0 0 127 0" result="hardAlpha"/>
<feOffset/>
<feGaussianBlur stdDeviation="12"/>
<feComposite in2="hardAlpha" operator="out"/>
<feColorMatrix type="matrix" values="0 0 0 0 0.956863 0 0 0 0 0.0196078 0 0 0 0 1 0 0 0 0.13 0"/>
<feBlend mode="normal" in2="BackgroundImageFix" result="effect1_dropShadow_10_109"/>
<feBlend mode="normal" in="SourceGraphic" in2="effect1_dropShadow_10_109" result="shape"/>
</filter>
<linearGradient id="paint0_linear_10_109" x1="24" y1="24" x2="71.9999" y2="72.0001" gradientUnits="userSpaceOnUse">
<stop stop-color="#F405FF"/>
<stop offset="1" stop-color="#893CFF"/>
</linearGradient>
</defs>
</svg>
