<svg width="32" height="32" viewBox="0 0 32 32" fill="none" xmlns="http://www.w3.org/2000/svg">
<g clip-path="url(#clip0_10_120)">
<path d="M8.6272 1.79626C6.40583 2.9491 4.48588 4.60695 3.02162 6.6366C1.55737 8.66624 0.589665 11.0111 0.196267 13.4827H1.12427C7.10827 13.344 11.7995 12.8256 15.6309 11.6523C13.9669 8.70186 11.936 5.80693 9.49973 2.86293L9.4976 2.8608L8.6272 1.79626ZM0.00426667 15.616L0 16C0 20.3029 1.69813 24.2091 4.4608 27.0848L4.80427 26.3936L4.86827 26.2827C8.40533 20.9024 12.4075 17.7024 16.8832 16.2667C17.1861 16.1685 17.4919 16.0789 17.8005 15.9979C17.442 15.1764 17.0599 14.3654 16.6549 13.5659C12.4629 14.9163 7.424 15.4709 1.16053 15.6139H0.0064" fill="#0A0A14"/>
<path d="M6.10132 28.5718C8.92027 30.7973 12.4084 32.0054 16 32C17.9051 32 19.7333 31.6672 21.4251 31.0571V29.5211C20.9045 25.3931 19.9893 21.6064 18.6133 17.9926C18.2507 18.0822 17.8908 18.1838 17.5339 18.2976C13.6469 19.5456 10.0139 22.3574 6.68585 27.4027L6.10132 28.5718ZM23.5584 30.1056C25.6208 28.9993 27.4157 27.4545 28.817 25.58C30.2183 23.7055 31.1919 21.5467 31.6693 19.2555L30.464 18.7115C26.9952 17.6918 23.7632 17.2736 20.7509 17.6128C22.112 21.2822 23.0272 25.135 23.5499 29.3206C23.5555 29.3632 23.5584 29.4073 23.5584 29.4528V30.1056ZM31.9659 17.0496C31.9886 16.7026 32 16.3527 32 16C32.0059 12.1632 30.6272 8.453 28.1173 5.55095L27.4816 6.25282C24.9856 9.28855 22.1355 11.3942 18.6709 12.8278C19.1232 13.7309 19.5449 14.6439 19.936 15.567C23.5029 15.055 27.2533 15.5371 31.1381 16.687L31.2768 16.7382L31.9659 17.0496ZM26.6155 4.02775C23.6915 1.42743 19.913 -0.00621365 16 2.02449e-05C14.1269 2.02449e-05 12.3307 0.32002 10.6603 0.913087L11.1467 1.50615C13.7493 4.64855 15.9083 7.75469 17.6704 10.9312C20.9621 9.60215 23.5712 7.65869 25.8496 4.87895L25.8816 4.84055L26.6155 4.02775Z" fill="#0A0A14"/>
</g>
<defs>
<clipPath id="clip0_10_120">
<rect width="32" height="32" fill="white"/>
</clipPath>
</defs>
</svg>
